<mxfile host="Electron" modified="2024-11-24T09:20:06.463Z" agent="Mozilla/5.0 (Windows NT 10.0; Win64; x64) AppleWebKit/537.36 (KHTML, like Gecko) draw.io/21.1.2 Chrome/106.0.5249.199 Electron/21.4.3 Safari/537.36" etag="z0w2N-9Tp4ZXLoQY5EKt" version="21.1.2" type="device">
  <diagram name="Page-1" id="q6j15Kij-bvvWm5dePSy">
    <mxGraphModel dx="1460" dy="1946" grid="1" gridSize="10" guides="1" tooltips="1" connect="1" arrows="1" fold="1" page="1" pageScale="1" pageWidth="1700" pageHeight="1100" math="0" shadow="0">
      <root>
        <mxCell id="0" />
        <mxCell id="1" parent="0" />
        <mxCell id="jHtvoxYCZul2BO5v1sut-9" value="" style="edgeStyle=orthogonalEdgeStyle;rounded=0;orthogonalLoop=1;jettySize=auto;html=1;fontSize=18;" parent="1" source="jHtvoxYCZul2BO5v1sut-1" target="jHtvoxYCZul2BO5v1sut-4" edge="1">
          <mxGeometry relative="1" as="geometry" />
        </mxCell>
        <mxCell id="jHtvoxYCZul2BO5v1sut-1" value="Start" style="strokeWidth=2;html=1;shape=mxgraph.flowchart.terminator;whiteSpace=wrap;fontSize=18;" parent="1" vertex="1">
          <mxGeometry x="280" y="-1020" width="100" height="60" as="geometry" />
        </mxCell>
        <mxCell id="jHtvoxYCZul2BO5v1sut-2" value="Stop" style="strokeWidth=2;html=1;shape=mxgraph.flowchart.terminator;whiteSpace=wrap;fontSize=18;" parent="1" vertex="1">
          <mxGeometry x="160" y="580" width="100" height="60" as="geometry" />
        </mxCell>
        <mxCell id="jHtvoxYCZul2BO5v1sut-3" value="a = 10" style="rounded=0;whiteSpace=wrap;html=1;fontSize=18;" parent="1" vertex="1">
          <mxGeometry x="230" y="-930" width="200" height="60" as="geometry" />
        </mxCell>
        <mxCell id="jbw4zbx4HDBEMPevVjLi-2" style="edgeStyle=orthogonalEdgeStyle;rounded=0;orthogonalLoop=1;jettySize=auto;html=1;entryX=0.5;entryY=0;entryDx=0;entryDy=0;" parent="1" source="jHtvoxYCZul2BO5v1sut-4" target="jHtvoxYCZul2BO5v1sut-7" edge="1">
          <mxGeometry relative="1" as="geometry" />
        </mxCell>
        <mxCell id="jHtvoxYCZul2BO5v1sut-4" value="b = 20, c = 30, d = 40" style="rounded=0;whiteSpace=wrap;html=1;fontSize=18;" parent="1" vertex="1">
          <mxGeometry x="225" y="-820" width="210" height="60" as="geometry" />
        </mxCell>
        <mxCell id="z32t-L75DolVypcwlp2I-1" value="" style="edgeStyle=orthogonalEdgeStyle;rounded=0;orthogonalLoop=1;jettySize=auto;html=1;" parent="1" source="jHtvoxYCZul2BO5v1sut-7" target="jHtvoxYCZul2BO5v1sut-14" edge="1">
          <mxGeometry relative="1" as="geometry" />
        </mxCell>
        <mxCell id="jHtvoxYCZul2BO5v1sut-7" value="OUTPUT &quot;This is&quot; a &quot;+&quot; b &quot;= &quot; a+b&amp;nbsp;" style="shape=parallelogram;perimeter=parallelogramPerimeter;whiteSpace=wrap;html=1;fixedSize=1;fontSize=18;" parent="1" vertex="1">
          <mxGeometry x="167.5" y="-700" width="325" height="60" as="geometry" />
        </mxCell>
        <mxCell id="jHtvoxYCZul2BO5v1sut-13" value="i &amp;lt; d - c" style="rhombus;whiteSpace=wrap;html=1;fontSize=18;" parent="1" vertex="1">
          <mxGeometry x="280" y="-420" width="100" height="90" as="geometry" />
        </mxCell>
        <mxCell id="jbw4zbx4HDBEMPevVjLi-1" style="edgeStyle=orthogonalEdgeStyle;rounded=0;orthogonalLoop=1;jettySize=auto;html=1;entryX=0.5;entryY=0;entryDx=0;entryDy=0;" parent="1" source="jHtvoxYCZul2BO5v1sut-14" target="jHtvoxYCZul2BO5v1sut-13" edge="1">
          <mxGeometry relative="1" as="geometry" />
        </mxCell>
        <mxCell id="jHtvoxYCZul2BO5v1sut-14" value="i = 0" style="rounded=0;whiteSpace=wrap;html=1;fontSize=18;" parent="1" vertex="1">
          <mxGeometry x="270" y="-590" width="120" height="60" as="geometry" />
        </mxCell>
        <mxCell id="jHtvoxYCZul2BO5v1sut-17" value="i &amp;lt; c" style="rhombus;whiteSpace=wrap;html=1;fontSize=18;" parent="1" vertex="1">
          <mxGeometry x="460" y="-310" width="80" height="80" as="geometry" />
        </mxCell>
        <mxCell id="jHtvoxYCZul2BO5v1sut-25" value="i == 8" style="rhombus;whiteSpace=wrap;html=1;fontSize=18;" parent="1" vertex="1">
          <mxGeometry x="600" y="-100" width="80" height="80" as="geometry" />
        </mxCell>
        <mxCell id="jHtvoxYCZul2BO5v1sut-27" value="" style="endArrow=classic;html=1;rounded=0;exitX=1;exitY=0.5;exitDx=0;exitDy=0;fontSize=18;" parent="1" source="jHtvoxYCZul2BO5v1sut-17" target="lHOTE2SsBwQXmEK08S3I-15" edge="1">
          <mxGeometry width="50" height="50" relative="1" as="geometry">
            <mxPoint x="630" y="-290" as="sourcePoint" />
            <mxPoint x="640" y="-220" as="targetPoint" />
            <Array as="points">
              <mxPoint x="640" y="-270" />
            </Array>
          </mxGeometry>
        </mxCell>
        <mxCell id="jHtvoxYCZul2BO5v1sut-29" value="" style="endArrow=classic;html=1;rounded=0;exitX=1;exitY=0.5;exitDx=0;exitDy=0;entryX=0.5;entryY=0;entryDx=0;entryDy=0;fontSize=18;" parent="1" source="jHtvoxYCZul2BO5v1sut-25" target="lHOTE2SsBwQXmEK08S3I-17" edge="1">
          <mxGeometry width="50" height="50" relative="1" as="geometry">
            <mxPoint x="680" y="-90" as="sourcePoint" />
            <mxPoint x="820" as="targetPoint" />
            <Array as="points">
              <mxPoint x="820" y="-60" />
            </Array>
          </mxGeometry>
        </mxCell>
        <mxCell id="jHtvoxYCZul2BO5v1sut-31" value="" style="endArrow=classic;html=1;rounded=0;exitX=1;exitY=0.5;exitDx=0;exitDy=0;entryX=0.5;entryY=0;entryDx=0;entryDy=0;" parent="1" source="jHtvoxYCZul2BO5v1sut-13" target="jHtvoxYCZul2BO5v1sut-17" edge="1">
          <mxGeometry width="50" height="50" relative="1" as="geometry">
            <mxPoint x="480" y="-340" as="sourcePoint" />
            <mxPoint x="530" y="-390" as="targetPoint" />
            <Array as="points">
              <mxPoint x="500" y="-375" />
            </Array>
          </mxGeometry>
        </mxCell>
        <mxCell id="jHtvoxYCZul2BO5v1sut-32" value="" style="ellipse;whiteSpace=wrap;html=1;aspect=fixed;" parent="1" vertex="1">
          <mxGeometry x="630" y="130" width="20" height="20" as="geometry" />
        </mxCell>
        <mxCell id="jHtvoxYCZul2BO5v1sut-33" value="" style="endArrow=classic;html=1;rounded=0;exitX=0;exitY=0.5;exitDx=0;exitDy=0;entryX=0;entryY=0.5;entryDx=0;entryDy=0;" parent="1" source="jHtvoxYCZul2BO5v1sut-25" target="jHtvoxYCZul2BO5v1sut-32" edge="1">
          <mxGeometry width="50" height="50" relative="1" as="geometry">
            <mxPoint x="420" y="10" as="sourcePoint" />
            <mxPoint x="470" y="-40" as="targetPoint" />
            <Array as="points">
              <mxPoint x="490" y="-60" />
              <mxPoint x="490" y="140" />
            </Array>
          </mxGeometry>
        </mxCell>
        <mxCell id="jHtvoxYCZul2BO5v1sut-34" value="" style="endArrow=classic;html=1;rounded=0;entryX=1;entryY=0.5;entryDx=0;entryDy=0;exitX=0.5;exitY=1;exitDx=0;exitDy=0;" parent="1" source="lHOTE2SsBwQXmEK08S3I-17" target="jHtvoxYCZul2BO5v1sut-32" edge="1">
          <mxGeometry width="50" height="50" relative="1" as="geometry">
            <mxPoint x="820" y="60" as="sourcePoint" />
            <mxPoint x="610" y="60" as="targetPoint" />
            <Array as="points">
              <mxPoint x="820" y="140" />
            </Array>
          </mxGeometry>
        </mxCell>
        <mxCell id="lHOTE2SsBwQXmEK08S3I-11" value="" style="edgeStyle=orthogonalEdgeStyle;rounded=0;orthogonalLoop=1;jettySize=auto;html=1;entryX=0.5;entryY=0;entryDx=0;entryDy=0;" parent="1" source="lHOTE2SsBwQXmEK08S3I-6" target="lHOTE2SsBwQXmEK08S3I-18" edge="1">
          <mxGeometry relative="1" as="geometry">
            <mxPoint x="482.5" y="270" as="targetPoint" />
          </mxGeometry>
        </mxCell>
        <mxCell id="lHOTE2SsBwQXmEK08S3I-6" value="" style="ellipse;whiteSpace=wrap;html=1;aspect=fixed;" parent="1" vertex="1">
          <mxGeometry x="490" y="200" width="20" height="20" as="geometry" />
        </mxCell>
        <mxCell id="lHOTE2SsBwQXmEK08S3I-7" value="" style="endArrow=classic;html=1;rounded=0;exitX=0;exitY=0.5;exitDx=0;exitDy=0;entryX=0;entryY=0.5;entryDx=0;entryDy=0;" parent="1" source="jHtvoxYCZul2BO5v1sut-17" target="lHOTE2SsBwQXmEK08S3I-6" edge="1">
          <mxGeometry width="50" height="50" relative="1" as="geometry">
            <mxPoint x="390" y="-150" as="sourcePoint" />
            <mxPoint x="430" y="210" as="targetPoint" />
            <Array as="points">
              <mxPoint x="360" y="-270" />
              <mxPoint x="360" y="210" />
            </Array>
          </mxGeometry>
        </mxCell>
        <mxCell id="lHOTE2SsBwQXmEK08S3I-10" value="" style="endArrow=classic;html=1;rounded=0;exitX=0.5;exitY=1;exitDx=0;exitDy=0;entryX=1;entryY=0.5;entryDx=0;entryDy=0;" parent="1" source="jHtvoxYCZul2BO5v1sut-32" target="lHOTE2SsBwQXmEK08S3I-6" edge="1">
          <mxGeometry width="50" height="50" relative="1" as="geometry">
            <mxPoint x="520" y="240" as="sourcePoint" />
            <mxPoint x="570" y="190" as="targetPoint" />
            <Array as="points">
              <mxPoint x="640" y="210" />
            </Array>
          </mxGeometry>
        </mxCell>
        <mxCell id="lHOTE2SsBwQXmEK08S3I-13" value="" style="endArrow=classic;html=1;rounded=0;exitX=0;exitY=0.5;exitDx=0;exitDy=0;entryX=0.5;entryY=0;entryDx=0;entryDy=0;entryPerimeter=0;" parent="1" source="jHtvoxYCZul2BO5v1sut-13" target="jHtvoxYCZul2BO5v1sut-2" edge="1">
          <mxGeometry width="50" height="50" relative="1" as="geometry">
            <mxPoint x="220" y="50" as="sourcePoint" />
            <mxPoint x="270" as="targetPoint" />
            <Array as="points">
              <mxPoint x="210" y="-375" />
            </Array>
          </mxGeometry>
        </mxCell>
        <mxCell id="lHOTE2SsBwQXmEK08S3I-16" value="" style="edgeStyle=orthogonalEdgeStyle;rounded=0;orthogonalLoop=1;jettySize=auto;html=1;" parent="1" source="lHOTE2SsBwQXmEK08S3I-15" target="jHtvoxYCZul2BO5v1sut-25" edge="1">
          <mxGeometry relative="1" as="geometry" />
        </mxCell>
        <mxCell id="lHOTE2SsBwQXmEK08S3I-15" value="OUTPUT &quot;Here &quot;" style="shape=parallelogram;perimeter=parallelogramPerimeter;whiteSpace=wrap;html=1;fixedSize=1;fontSize=18;" parent="1" vertex="1">
          <mxGeometry x="545" y="-230" width="190" height="60" as="geometry" />
        </mxCell>
        <mxCell id="lHOTE2SsBwQXmEK08S3I-17" value="OUTPUT &quot;This is 8. &quot;" style="shape=parallelogram;perimeter=parallelogramPerimeter;whiteSpace=wrap;html=1;fixedSize=1;fontSize=18;" parent="1" vertex="1">
          <mxGeometry x="710" y="-10" width="220" height="60" as="geometry" />
        </mxCell>
        <mxCell id="lHOTE2SsBwQXmEK08S3I-20" value="" style="edgeStyle=orthogonalEdgeStyle;rounded=0;orthogonalLoop=1;jettySize=auto;html=1;" parent="1" source="lHOTE2SsBwQXmEK08S3I-18" target="lHOTE2SsBwQXmEK08S3I-19" edge="1">
          <mxGeometry relative="1" as="geometry" />
        </mxCell>
        <mxCell id="lHOTE2SsBwQXmEK08S3I-18" value="OUTPUT &quot;ok&quot;" style="shape=parallelogram;perimeter=parallelogramPerimeter;whiteSpace=wrap;html=1;fixedSize=1;fontSize=18;" parent="1" vertex="1">
          <mxGeometry x="390" y="270" width="220" height="60" as="geometry" />
        </mxCell>
        <mxCell id="lHOTE2SsBwQXmEK08S3I-19" value="&lt;font style=&quot;font-size: 18px;&quot;&gt;i += 1&lt;/font&gt;" style="rounded=0;whiteSpace=wrap;html=1;" parent="1" vertex="1">
          <mxGeometry x="440" y="390" width="120" height="60" as="geometry" />
        </mxCell>
        <mxCell id="lHOTE2SsBwQXmEK08S3I-21" value="" style="endArrow=classic;html=1;rounded=0;exitX=0.5;exitY=1;exitDx=0;exitDy=0;" parent="1" source="lHOTE2SsBwQXmEK08S3I-19" edge="1">
          <mxGeometry width="50" height="50" relative="1" as="geometry">
            <mxPoint x="760" y="470" as="sourcePoint" />
            <mxPoint x="330" y="-480" as="targetPoint" />
            <Array as="points">
              <mxPoint x="500" y="540" />
              <mxPoint x="1010" y="540" />
              <mxPoint x="1000" y="-480" />
            </Array>
          </mxGeometry>
        </mxCell>
        <mxCell id="HPRp4ToHwklWbD9scRHD-1" value="T" style="text;html=1;strokeColor=none;fillColor=none;align=center;verticalAlign=middle;whiteSpace=wrap;rounded=0;" vertex="1" parent="1">
          <mxGeometry x="720" y="-90" width="60" height="30" as="geometry" />
        </mxCell>
        <mxCell id="HPRp4ToHwklWbD9scRHD-2" value="F" style="text;html=1;strokeColor=none;fillColor=none;align=center;verticalAlign=middle;whiteSpace=wrap;rounded=0;" vertex="1" parent="1">
          <mxGeometry x="520" y="-90" width="60" height="30" as="geometry" />
        </mxCell>
        <mxCell id="HPRp4ToHwklWbD9scRHD-3" value="F" style="text;html=1;strokeColor=none;fillColor=none;align=center;verticalAlign=middle;whiteSpace=wrap;rounded=0;" vertex="1" parent="1">
          <mxGeometry x="380" y="-300" width="60" height="30" as="geometry" />
        </mxCell>
        <mxCell id="HPRp4ToHwklWbD9scRHD-4" value="T" style="text;html=1;strokeColor=none;fillColor=none;align=center;verticalAlign=middle;whiteSpace=wrap;rounded=0;" vertex="1" parent="1">
          <mxGeometry x="560" y="-300" width="60" height="30" as="geometry" />
        </mxCell>
        <mxCell id="HPRp4ToHwklWbD9scRHD-5" value="T" style="text;html=1;strokeColor=none;fillColor=none;align=center;verticalAlign=middle;whiteSpace=wrap;rounded=0;" vertex="1" parent="1">
          <mxGeometry x="410" y="-410" width="60" height="30" as="geometry" />
        </mxCell>
        <mxCell id="HPRp4ToHwklWbD9scRHD-6" value="F" style="text;html=1;strokeColor=none;fillColor=none;align=center;verticalAlign=middle;whiteSpace=wrap;rounded=0;" vertex="1" parent="1">
          <mxGeometry x="210" y="-410" width="60" height="30" as="geometry" />
        </mxCell>
      </root>
    </mxGraphModel>
  </diagram>
</mxfile>
